<svg width="153" height="153" viewBox="0 0 153 153" fill="none" xmlns="http://www.w3.org/2000/svg">
<g opacity="0.1">
<path d="M125.717 77.3129C125.233 77.032 124.701 76.7631 124.151 76.5001C124.701 76.2371 125.233 75.9682 125.717 75.6873C128.458 74.129 130.863 72.044 132.795 69.5523C134.726 67.0606 136.146 64.2114 136.972 61.1688C137.798 58.1262 138.014 54.9503 137.608 51.8238C137.201 48.6973 136.181 45.6821 134.604 42.9518C133.028 40.2214 130.927 37.8299 128.423 35.9148C125.918 33.9997 123.06 32.5989 120.012 31.793C116.963 30.9872 113.786 30.7922 110.662 31.2193C107.539 31.6464 104.53 32.6872 101.811 34.2817C101.326 34.5626 100.824 34.8793 100.328 35.2319C100.376 34.6343 100.406 34.0366 100.406 33.439C100.406 27.0986 97.8874 21.018 93.4041 16.5347C88.9208 12.0514 82.8402 9.53271 76.4998 9.53271C70.1595 9.53271 64.0788 12.0514 59.5956 16.5347C55.1123 21.018 52.5936 27.0986 52.5936 33.439C52.5936 34.0008 52.5936 34.5984 52.6713 35.2319C52.1752 34.8913 51.6732 34.5626 51.1891 34.2817C48.4693 32.6872 45.4609 31.6464 42.3372 31.2193C39.2135 30.7922 36.0362 30.9872 32.9882 31.793C29.9401 32.5989 27.0816 33.9997 24.5771 35.9148C22.0727 37.8299 19.9718 40.2214 18.3954 42.9518C16.819 45.6821 15.7982 48.6973 15.3918 51.8238C14.9854 54.9503 15.2015 58.1262 16.0275 61.1688C16.8536 64.2114 18.2733 67.0606 20.205 69.5523C22.1366 72.044 24.5421 74.129 27.2828 75.6873C27.7669 75.9682 28.2989 76.2371 28.8487 76.5001C28.2989 76.7631 27.7669 77.032 27.2828 77.3129C24.5421 78.8712 22.1366 80.9562 20.205 83.4479C18.2733 85.9396 16.8536 88.7887 16.0275 91.8314C15.2015 94.874 14.9854 98.0499 15.3918 101.176C15.7982 104.303 16.819 107.318 18.3954 110.048C19.9718 112.779 22.0727 115.17 24.5771 117.085C27.0816 119 29.9401 120.401 32.9882 121.207C36.0362 122.013 39.2135 122.208 42.3372 121.781C45.4609 121.354 48.4693 120.313 51.1891 118.719C51.6732 118.438 52.1752 118.121 52.6713 117.768C52.6235 118.366 52.5936 118.964 52.5936 119.531C52.5936 125.872 55.1123 131.952 59.5956 136.436C64.0788 140.919 70.1595 143.438 76.4998 143.438C82.8402 143.438 88.9208 140.919 93.4041 136.436C97.8874 131.952 100.406 125.872 100.406 119.531C100.406 118.97 100.376 118.372 100.328 117.768C100.824 118.109 101.326 118.438 101.811 118.719C105.432 120.816 109.543 121.921 113.728 121.922C115.831 121.919 117.924 121.642 119.955 121.097C124.523 119.873 128.624 117.322 131.741 113.767C134.859 110.212 136.852 105.812 137.468 101.124C138.085 96.436 137.298 91.6705 135.206 87.43C133.114 83.1895 129.812 79.6646 125.717 77.3009V77.3129ZM62.1561 76.5001C62.1561 73.6632 62.9973 70.8899 64.5734 68.5311C66.1496 66.1723 68.3897 64.3338 71.0107 63.2482C73.6317 62.1626 76.5157 61.8785 79.2982 62.432C82.0806 62.9854 84.6364 64.3515 86.6424 66.3575C88.6484 68.3635 90.0145 70.9194 90.568 73.7018C91.1214 76.4842 90.8374 79.3682 89.7517 81.9892C88.6661 84.6102 86.8276 86.8504 84.4688 88.4265C82.11 90.0026 79.3368 90.8438 76.4998 90.8438C72.6956 90.8438 69.0472 89.3326 66.3573 86.6427C63.6673 83.9527 62.1561 80.3043 62.1561 76.5001ZM106.592 42.5592C108.223 41.6174 110.024 41.0061 111.892 40.7602C113.759 40.5144 115.657 40.6388 117.476 41.1263C119.296 41.6139 121.001 42.455 122.496 43.6017C123.99 44.7484 125.244 46.1783 126.186 47.8096C127.128 49.4409 127.739 51.2418 127.985 53.1093C128.231 54.9769 128.106 56.8746 127.619 58.6941C127.131 60.5136 126.29 62.2192 125.143 63.7136C123.997 65.208 122.567 66.4619 120.936 67.4038C117.188 69.5733 109.813 71.0674 99.922 71.7009C98.8785 66.6409 96.2239 62.055 92.3557 58.6302C97.8541 50.3706 102.845 44.7287 106.592 42.5592ZM76.4998 19.1251C80.304 19.1251 83.9524 20.6363 86.6424 23.3263C89.3324 26.0163 90.8436 29.6646 90.8436 33.4688C90.8436 37.7959 88.453 44.9379 84.0542 53.825C79.1517 52.1835 73.8479 52.1835 68.9455 53.825C64.5467 44.9379 62.1561 37.7959 62.1561 33.4688C62.1561 29.6646 63.6673 26.0163 66.3573 23.3263C69.0472 20.6363 72.6956 19.1251 76.4998 19.1251ZM26.8107 47.8126C27.7522 46.1806 29.0061 44.7501 30.5006 43.6028C31.9952 42.4555 33.7011 41.6139 35.521 41.1261C37.3408 40.6382 39.239 40.5137 41.107 40.7596C42.975 41.0055 44.7762 41.617 46.4078 42.5592C50.1551 44.7287 55.1456 50.3706 60.644 58.6302C56.7724 62.0597 54.1175 66.6523 53.0777 71.7188C43.1865 71.0853 35.8114 69.5912 32.0641 67.4277C30.4297 66.4861 28.9971 65.2314 27.8483 63.7355C26.6994 62.2396 25.8569 60.5317 25.3689 58.7098C24.881 56.8878 24.7571 54.9875 25.0045 53.1176C25.2519 51.2477 25.8657 49.445 26.8107 47.8126ZM46.4078 110.441C43.1132 112.343 39.198 112.859 35.5234 111.874C31.8487 110.889 28.7158 108.485 26.8137 105.191C24.9116 101.896 24.3962 97.9807 25.3808 94.3061C26.3654 90.6315 28.7695 87.4985 32.0641 85.5964C35.8114 83.4269 43.1865 81.9328 53.0777 81.2993C54.1211 86.3593 56.7758 90.9452 60.644 94.37C55.1456 102.63 50.1551 108.271 46.4078 110.441ZM76.4998 133.875C72.6956 133.875 69.0472 132.364 66.3573 129.674C63.6673 126.984 62.1561 123.336 62.1561 119.531C62.1561 115.204 64.5467 108.062 68.9455 99.1752C73.8479 100.817 79.1517 100.817 84.0542 99.1752C88.453 108.062 90.8436 115.204 90.8436 119.531C90.8436 123.336 89.3324 126.984 86.6424 129.674C83.9524 132.364 80.304 133.875 76.4998 133.875ZM126.189 105.188C125.247 106.82 123.994 108.25 122.499 109.397C121.005 110.545 119.299 111.386 117.479 111.874C115.659 112.362 113.761 112.486 111.893 112.241C110.025 111.995 108.223 111.383 106.592 110.441C102.845 108.271 97.8541 102.63 92.3557 94.37C96.2272 90.9405 98.8821 86.3478 99.922 81.2813C109.813 81.9149 117.188 83.409 120.936 85.5725C122.57 86.5141 124.003 87.7687 125.151 89.2647C126.3 90.7606 127.143 92.4685 127.631 94.2904C128.119 96.1124 128.243 98.0127 127.995 99.8826C127.748 101.752 127.134 103.555 126.189 105.188Z" fill="black"/>
</g>
</svg>
