<svg width="632" height="111" viewBox="0 0 632 111" fill="none" xmlns="http://www.w3.org/2000/svg">
<path opacity="0.1" d="M58.8486 112.729H36.1787V18.7104H0V0H95.105V18.7104H58.8486V112.729ZM178.176 0H200.691V112.729H178.176V65.0596H133.302V112.729H110.71V0H133.302V47.5913H178.176V0ZM295.175 94.0181V112.729H224.06V0H295.175V18.7104H246.574V47.6689H290.827V65.0596H246.574V94.0181H295.175ZM412.562 94.0181V112.729H341.446V0H412.562V18.7104H363.961V47.6689H408.214V65.0596H363.961V94.0181H412.562ZM495.943 0H518.613V112.729H496.487L451.069 37.2656H450.293V112.729H427.778V0H449.75L495.167 75.5405H495.943V0ZM631.109 56.3643C631.109 63.8174 630.125 70.9341 628.159 77.7144C626.192 84.4946 623.138 90.5244 618.998 95.8037C614.857 101.031 609.5 105.172 602.927 108.226C596.354 111.228 588.435 112.729 579.17 112.729H541.749V0H579.17C588.435 0 596.354 1.52686 602.927 4.58057C609.5 7.58252 614.857 11.7231 618.998 17.0024C623.138 22.23 626.192 28.2339 628.159 35.0142C630.125 41.7427 631.109 48.8594 631.109 56.3643ZM608.517 56.3643C608.517 43.8389 606.265 34.4448 601.762 28.1821C597.259 21.8677 589.729 18.7104 579.17 18.7104H564.264V94.0181H579.17C589.729 94.0181 597.259 90.8867 601.762 84.624C606.265 78.3613 608.517 68.9414 608.517 56.3643Z" fill="black"/>
</svg>
