<svg width="68" height="68" viewBox="0 0 68 68" fill="none" xmlns="http://www.w3.org/2000/svg">
<rect x="7" y="7" width="54" height="54" rx="27" fill="#DFFCA1"/>
<rect x="3.5" y="3.5" width="61" height="61" rx="30.5" stroke="#DFFCA1" stroke-opacity="0.32" stroke-width="7"/>
<path d="M44.5 34C44.5006 34.2546 44.4353 34.5051 44.3105 34.727C44.1856 34.949 44.0055 35.1348 43.7875 35.2665L30.28 43.5297C30.0523 43.6691 29.7914 43.7452 29.5244 43.7502C29.2575 43.7551 28.994 43.6887 28.7613 43.5578C28.5307 43.4289 28.3387 43.2409 28.2049 43.0132C28.0711 42.7855 28.0004 42.5263 28 42.2622V25.7378C28.0004 25.4737 28.0711 25.2144 28.2049 24.9867C28.3387 24.759 28.5307 24.5711 28.7613 24.4422C28.994 24.3112 29.2575 24.2448 29.5244 24.2498C29.7914 24.2547 30.0523 24.3308 30.28 24.4703L43.7875 32.7334C44.0055 32.8651 44.1856 33.051 44.3105 33.2729C44.4353 33.4949 44.5006 33.7453 44.5 34Z" fill="#093F20"/>
</svg>
